<?xml version="1.0" encoding="UTF-8"?>
<svg width="752pt" height="752pt" version="1.1" viewBox="0 0 752 752" xmlns="http://www.w3.org/2000/svg">
 <defs>
  <clipPath id="c">
   <path d="m387 272h189v340.79h-189z"/>
  </clipPath>
  <clipPath id="b">
   <path d="m176 272h189v340.79h-189z"/>
  </clipPath>
  <clipPath id="a">
   <path d="m191 139.21h370v223.79h-370z"/>
  </clipPath>
 </defs>
 <g>
  <g clip-path="url(#c)">
   <path d="m575.79 487.6v-205.26c0-5.9453-2.8164-9.3633-6.9336-9.3633-1.7344 0-3.6992 0.60547-5.7852 1.8867l-175.94 108.27c-0.015624 0.011719-0.03125 0.039063-0.03125 0.054688v220.23c0 5.9492 2.8242 9.375 6.9492 9.375 1.7344 0 3.6953-0.60547 5.7773-1.8828l163.24-100.21c7.0234-4.3164 12.723-14.66 12.723-23.102z" fill="#fff"/>
  </g>
  <g clip-path="url(#b)">
   <path d="m188.93 510.71 163.24 100.2c2.082 1.2734 4.043 1.8828 5.7773 1.8828 4.125 0 6.9492-3.4258 6.9492-9.375v-220.23c0-0.019532-0.015625-0.042969-0.03125-0.054688l-175.95-108.27c-2.0859-1.2812-4.0469-1.8867-5.7852-1.8867-4.1133 0-6.9297 3.418-6.9297 9.3633v205.26c0 8.4414 5.6953 18.789 12.723 23.105z" fill="#fff"/>
  </g>
  <g clip-path="url(#a)">
   <path d="m555.59 240.86-168.4-98.559c-3.5195-2.0625-8.1641-3.0938-12.805-3.0938s-9.2812 1.0312-12.801 3.0898l-165.21 96.645c-7.1016 4.1562-7.1602 10.992-0.125 15.27l165.18 100.48c6.8594 4.1758 12.492 7.5117 12.672 7.5117h0.003907c0 0.10937 0.066406 0.24609 0.14453 0.29687h0.003906c0.16797 0 5.9492-3.3281 12.926-7.4336l168.43-99.188c7.0273-4.1406 7.0195-10.902-0.019531-15.023zm-72.805 0.39844c-0.69141 1.1836-1.9258 1.8438-3.1953 1.8438-0.63672 0-1.2812-0.16797-1.8711-0.51562l-95.562-56.699c-5.793-3.418-8.4688-3.3711-14.305 0.21484l-93.57 55.695c-1.7578 1.0469-4.0273 0.45703-5.0664-1.3203-1.0352-1.7773-0.45312-4.0664 1.3086-5.1133l93.523-55.672c8.1406-5.0078 13.668-5.0781 21.852-0.25l95.57 56.703c1.7578 1.0469 2.3477 3.3359 1.3164 5.1133z" fill="#fff"/>
  </g>
 </g>
</svg>
