<?xml version="1.0" encoding="UTF-8"?>
<svg width="752pt" height="752pt" version="1.1" viewBox="0 0 752 752" xmlns="http://www.w3.org/2000/svg">
 <path d="m375.72 150.39c124.68 0 225.89 100.64 225.89 225.33s-101.2 225.89-225.89 225.89-225.33-101.2-225.33-225.89 100.64-225.33 225.33-225.33zm0 181.16 63.742-63.742c29.074-29.074 73.805 15.098 44.73 44.172l-63.742 63.742 63.742 63.742c29.074 29.074-15.656 73.805-44.73 44.73l-63.742-63.742-63.742 63.742c-29.074 29.074-73.246-15.656-44.172-44.73l63.742-63.742-63.742-63.742c-29.074-29.074 15.098-73.246 44.172-44.172z" fill="#c90b01" fill-rule="evenodd"/>
</svg>
